<svg xmlns="http://www.w3.org/2000/svg" version="1.2" viewBox="0 0 343 229"><defs><clipPath id="cp1" clipPathUnits="userSpaceOnUse"><path d="m2052.64-810.17 9.67 1605.81-2806.19 16.88-9.67-1605.8z"/></clipPath></defs><style>.C,.D{fill:#e3e3e3}.C{opacity:.37}.D{opacity:.38}.K,.N{fill:#e3e3e3}.K{opacity:.36}.N{opacity:.4}.P{fill:#e3e3e3;opacity:.42}</style><g clip-path="url(#cp1)"><path fill-rule="evenodd" d="M-16.6 121.2c-.7 0-1.2-.5-1.2-1.1s.5-1.1 1.1-1.1c.7-.1 1.2.4 1.2 1.1 0 .6-.5 1.1-1.1 1.1m20.4 30.3c-.6 0-1.1-.4-1.1-1.1 0-.6.5-1.1 1.1-1.1s1.1.5 1.1 1.1-.5 1.1-1.1 1.1" class="C"/><path fill-rule="evenodd" d="M17.7 181.1c-.6 0-1.1-.5-1.1-1.1s.5-1.1 1.1-1.1 1.1.5 1.1 1.1-.5 1.1-1.1 1.1M28.6 225c-.6 0-1.1-.5-1.1-1.1s.5-1.1 1.1-1.1 1.1.5 1.1 1.1-.5 1.1-1.1 1.1M16.3-64c-.6 0-1.1-.4-1.1-1 0-.7.5-1.2 1.1-1.2s1.1.5 1.1 1.1S17-64 16.3-64m31.9-8.2c-.6 0-1.1-.5-1.1-1.1s.5-1.1 1.1-1.1 1.1.5 1.1 1.1-.5 1.1-1.1 1.1M50-40.1c-.6 0-1.1-.5-1.1-1.1 0-.7.5-1.1 1.1-1.1.6-.1 1.1.4 1.1 1 0 .7-.4 1.1-1.1 1.2m-8.8 54.6c-.6 0-1.1-.5-1.1-1.1s.4-1.1 1.1-1.1c.6 0 1.1.5 1.1 1.1s-.5 1.1-1.1 1.1" class="K"/><path fill-rule="evenodd" d="M16.8 98.8c-.7 0-1.2-.5-1.2-1.1 0-.7.5-1.2 1.1-1.2.7 0 1.2.5 1.2 1.1 0 .7-.5 1.2-1.1 1.2" class="D"/><path fill-rule="evenodd" d="M86.5 114.4c-.7 0-1.2-.5-1.2-1.2s.5-1.2 1.2-1.2 1.2.5 1.2 1.2-.5 1.2-1.2 1.2" class="P"/><path fill-rule="evenodd" d="M186.6 219.1c-.7.1-1.3-.5-1.3-1.2 0-.6.6-1.2 1.2-1.2.7 0 1.3.5 1.3 1.2s-.6 1.2-1.2 1.2" style="fill:#e3e3e3;opacity:.43"/><path fill-rule="evenodd" d="M110.3-21.2c-.7 0-1.2-.6-1.2-1.2 0-.7.5-1.2 1.2-1.2.6 0 1.1.5 1.1 1.2.1.6-.5 1.1-1.1 1.2m112.9 155.7c-.6 0-1.1-.5-1.1-1.1 0-.7.5-1.2 1.1-1.2s1.2.5 1.2 1.2c0 .6-.5 1.1-1.2 1.1" class="N"/><path fill-rule="evenodd" d="M235.6 159.2c-.7 0-1.2-.5-1.2-1.2s.5-1.2 1.2-1.2c.6 0 1.2.5 1.2 1.2s-.6 1.2-1.2 1.2" class="P"/><path fill-rule="evenodd" d="M209.5 105.8c-.6 0-1.1-.5-1.1-1.2 0-.6.5-1.2 1.1-1.2.7 0 1.2.6 1.2 1.2 0 .7-.5 1.2-1.2 1.2" style="opacity:.41;fill:#e3e3e3"/><path fill-rule="evenodd" d="M165.5 18.6c-.7 0-1.2-.5-1.2-1.2 0-.6.5-1.1 1.2-1.1.6 0 1.1.5 1.1 1.1 0 .7-.5 1.2-1.1 1.2" class="N"/><path fill-rule="evenodd" d="M223.7 60.9c-.6 0-1.2-.5-1.2-1.1 0-.7.5-1.2 1.2-1.2.6 0 1.1.5 1.1 1.1 0 .7-.5 1.2-1.1 1.2" style="fill:#e3e3e3;opacity:.39"/><path fill-rule="evenodd" d="M247.4 70.9c-.6 0-1.1-.5-1.1-1.1s.5-1.1 1.1-1.1 1.1.5 1.1 1.1-.5 1.1-1.1 1.1" class="D"/><path fill-rule="evenodd" d="M-1.1 38c-.7 0-1.3-.6-1.3-1.3 0-.8.6-1.4 1.3-1.4.8 0 1.4.6 1.4 1.4 0 .7-.6 1.3-1.4 1.3" style="opacity:.52;fill:#e3e3e3"/><path fill-rule="evenodd" d="M35.4 39.4c-.8 0-1.4-.6-1.4-1.4 0-.7.6-1.3 1.4-1.4.7 0 1.3.6 1.3 1.4s-.6 1.4-1.3 1.4" style="opacity:.53;fill:#e3e3e3"/><path fill-rule="evenodd" d="M63.9 53.2c-.8.1-1.4-.6-1.4-1.3 0-.8.6-1.4 1.4-1.4.7 0 1.4.6 1.4 1.4 0 .7-.6 1.3-1.4 1.3" style="opacity:.54;fill:#e3e3e3"/><path fill-rule="evenodd" d="M339.3-227.7c-.6 0-1.1-.5-1.1-1 0-.6.4-1.1 1-1.1s1.1.4 1.1 1-.4 1.1-1 1.1m-4.7 147.5c-.6 0-1.1-.5-1.1-1.1s.5-1 1.1-1 1 .4 1 1-.4 1.1-1 1.1M302.8 55.3c-.6 0-1.1-.5-1.1-1.1s.5-1 1.1-1c.6-.1 1.1.4 1.1 1s-.5 1.1-1.1 1.1" style="fill:#e3e3e3;opacity:.35"/><path fill-rule="evenodd" d="M299.7 136.5c-.6 0-1.1-.5-1.1-1.1s.5-1.1 1.1-1.1 1.1.5 1.1 1.1-.5 1.1-1.1 1.1" class="K"/><path fill-rule="evenodd" d="M293.3 76.4c-.6 0-1.1-.5-1.1-1.1s.5-1.1 1.1-1.1 1.1.5 1.1 1.1-.5 1.1-1.1 1.1m-12.7-58.6c-.7 0-1.2-.5-1.2-1.1s.5-1.1 1.1-1.1c.7 0 1.2.5 1.2 1.1s-.5 1.1-1.1 1.1" class="C"/><path fill-rule="evenodd" d="M232.8 215c-.6 0-1-.5-1-1-.1-.6.4-1.1 1-1.1.5 0 1 .5 1 1 0 .6-.4 1.1-1 1.1" style="opacity:.32;fill:#e3e3e3"/></g></svg>